<svg width="80" height="80" viewBox="0 0 80 80" fill="none" xmlns="http://www.w3.org/2000/svg">
<rect x="0.5" y="0.5" width="79" height="79" rx="5.5" stroke="#ACAFBC"/>
<path d="M25.1136 36.2727V45H24.0568V36.2727H25.1136ZM27.0962 45V38.4545H28.0678V39.4773H28.1531C28.2894 39.1278 28.5096 38.8565 28.8136 38.6634C29.1175 38.4673 29.4826 38.3693 29.9087 38.3693C30.3406 38.3693 30.6999 38.4673 30.9869 38.6634C31.2766 38.8565 31.5025 39.1278 31.6644 39.4773H31.7326C31.9002 39.1392 32.1516 38.8707 32.4869 38.6719C32.8221 38.4702 33.2241 38.3693 33.6928 38.3693C34.2781 38.3693 34.7567 38.5526 35.1289 38.919C35.5011 39.2827 35.6871 39.8494 35.6871 40.6193V45H34.6815V40.6193C34.6815 40.1364 34.5494 39.7912 34.2852 39.5838C34.021 39.3764 33.7099 39.2727 33.3519 39.2727C32.8917 39.2727 32.5352 39.4119 32.2823 39.6903C32.0295 39.9659 31.9031 40.3153 31.9031 40.7386V45H30.8803V40.517C30.8803 40.1449 30.7596 39.8452 30.5181 39.6179C30.2766 39.3878 29.9656 39.2727 29.5849 39.2727C29.3235 39.2727 29.0792 39.3423 28.8519 39.4815C28.6275 39.6207 28.4457 39.8139 28.3065 40.0611C28.1701 40.3054 28.1019 40.5881 28.1019 40.9091V45H27.0962ZM39.4521 45.1534C39.0373 45.1534 38.6609 45.0753 38.3228 44.919C37.9847 44.7599 37.7163 44.5312 37.5174 44.233C37.3185 43.9318 37.2191 43.5682 37.2191 43.142C37.2191 42.767 37.293 42.4631 37.4407 42.2301C37.5884 41.9943 37.7859 41.8097 38.033 41.6761C38.2802 41.5426 38.5529 41.4432 38.8512 41.3778C39.1523 41.3097 39.4549 41.2557 39.7589 41.2159C40.1566 41.1648 40.479 41.1264 40.7262 41.1009C40.9762 41.0724 41.158 41.0256 41.2717 40.9602C41.3881 40.8949 41.4464 40.7812 41.4464 40.6193V40.5852C41.4464 40.1648 41.3313 39.8381 41.1012 39.6051C40.8739 39.3722 40.5288 39.2557 40.0657 39.2557C39.5856 39.2557 39.2092 39.3608 38.9364 39.571C38.6637 39.7812 38.4719 40.0057 38.3612 40.2443L37.4066 39.9034C37.5771 39.5057 37.8043 39.196 38.0884 38.9744C38.3754 38.75 38.6879 38.5937 39.0259 38.5057C39.3668 38.4148 39.7021 38.3693 40.0316 38.3693C40.2418 38.3693 40.4833 38.3949 40.756 38.446C41.0316 38.4943 41.2972 38.5952 41.5529 38.7486C41.8114 38.902 42.0259 39.1335 42.1964 39.4432C42.3668 39.7528 42.4521 40.1676 42.4521 40.6875V45H41.4464V44.1136H41.3952C41.3271 44.2557 41.2134 44.4077 41.0543 44.5696C40.8952 44.7315 40.6836 44.8693 40.4194 44.983C40.1552 45.0966 39.8327 45.1534 39.4521 45.1534ZM39.6055 44.25C40.0032 44.25 40.3384 44.1719 40.6112 44.0156C40.8867 43.8594 41.0941 43.6577 41.2333 43.4105C41.3754 43.1634 41.4464 42.9034 41.4464 42.6307V41.7102C41.4038 41.7614 41.31 41.8082 41.1651 41.8509C41.0231 41.8906 40.8583 41.9261 40.6708 41.9574C40.4862 41.9858 40.3058 42.0114 40.1296 42.0341C39.9563 42.054 39.8157 42.071 39.7077 42.0852C39.4464 42.1193 39.2021 42.1747 38.9748 42.2514C38.7504 42.3253 38.5685 42.4375 38.4293 42.5881C38.293 42.7358 38.2248 42.9375 38.2248 43.1932C38.2248 43.5426 38.354 43.8068 38.6126 43.9858C38.8739 44.1619 39.2049 44.25 39.6055 44.25ZM46.9297 47.5909C46.4439 47.5909 46.0263 47.5284 45.6768 47.4034C45.3274 47.2812 45.0362 47.1193 44.8033 46.9176C44.5732 46.7188 44.3899 46.5057 44.2536 46.2784L45.0547 45.7159C45.1456 45.8352 45.2607 45.9716 45.3999 46.125C45.5391 46.2812 45.7294 46.4162 45.9709 46.5298C46.2152 46.6463 46.5348 46.7045 46.9297 46.7045C47.4581 46.7045 47.8942 46.5767 48.2379 46.321C48.5817 46.0653 48.7536 45.6648 48.7536 45.1193V43.7898H48.6683C48.5945 43.9091 48.4893 44.0568 48.353 44.233C48.2195 44.4062 48.0263 44.5611 47.7734 44.6974C47.5234 44.831 47.1854 44.8977 46.7592 44.8977C46.2308 44.8977 45.7564 44.7727 45.3359 44.5227C44.9183 44.2727 44.5874 43.9091 44.343 43.4318C44.1016 42.9545 43.9808 42.375 43.9808 41.6932C43.9808 41.0227 44.0987 40.4389 44.3345 39.9418C44.5703 39.4418 44.8984 39.0554 45.3189 38.7827C45.7393 38.5071 46.2251 38.3693 46.7763 38.3693C47.2024 38.3693 47.5405 38.4403 47.7905 38.5824C48.0433 38.7216 48.2365 38.8807 48.37 39.0597C48.5064 39.2358 48.6115 39.3807 48.6854 39.4943H48.7876V38.4545H49.7592V45.1875C49.7592 45.75 49.6314 46.2074 49.3757 46.5597C49.1229 46.9148 48.782 47.1747 48.353 47.3395C47.9268 47.5071 47.4524 47.5909 46.9297 47.5909ZM46.8956 43.9943C47.299 43.9943 47.6399 43.902 47.9183 43.7173C48.1967 43.5327 48.4084 43.267 48.5533 42.9205C48.6982 42.5739 48.7706 42.1591 48.7706 41.6761C48.7706 41.2045 48.6996 40.7884 48.5575 40.4276C48.4155 40.0668 48.2053 39.7841 47.9268 39.5795C47.6484 39.375 47.3047 39.2727 46.8956 39.2727C46.4695 39.2727 46.1143 39.3807 45.8303 39.5966C45.549 39.8125 45.3374 40.1023 45.1953 40.4659C45.0561 40.8295 44.9865 41.233 44.9865 41.6761C44.9865 42.1307 45.0575 42.5327 45.1996 42.8821C45.3445 43.2287 45.5575 43.5014 45.8388 43.7003C46.1229 43.8963 46.4751 43.9943 46.8956 43.9943ZM54.3445 45.1364C53.7138 45.1364 53.1697 44.9972 52.7124 44.7188C52.2578 44.4375 51.907 44.0455 51.6598 43.5426C51.4155 43.0369 51.2933 42.4489 51.2933 41.7784C51.2933 41.108 51.4155 40.517 51.6598 40.0057C51.907 39.4915 52.2507 39.0909 52.6911 38.804C53.1342 38.5142 53.6513 38.3693 54.2422 38.3693C54.5831 38.3693 54.9197 38.4261 55.2521 38.5398C55.5845 38.6534 55.8871 38.8381 56.1598 39.0938C56.4325 39.3466 56.6499 39.6818 56.8118 40.0994C56.9737 40.517 57.0547 41.0312 57.0547 41.642V42.0682H52.0092V41.1989H56.032C56.032 40.8295 55.9581 40.5 55.8104 40.2102C55.6655 39.9205 55.4581 39.6918 55.1882 39.5241C54.9212 39.3565 54.6058 39.2727 54.2422 39.2727C53.8416 39.2727 53.495 39.3722 53.2024 39.571C52.9126 39.767 52.6896 40.0227 52.5334 40.3381C52.3771 40.6534 52.299 40.9915 52.299 41.3523V41.9318C52.299 42.4261 52.3842 42.8452 52.5547 43.1889C52.728 43.5298 52.968 43.7898 53.2749 43.9688C53.5817 44.1449 53.9382 44.233 54.3445 44.233C54.6087 44.233 54.8473 44.196 55.0604 44.1222C55.2763 44.0455 55.4624 43.9318 55.6186 43.7812C55.7749 43.6278 55.8956 43.4375 55.9808 43.2102L56.9524 43.483C56.8501 43.8125 56.6783 44.1023 56.4368 44.3523C56.1953 44.5994 55.897 44.7926 55.5419 44.9318C55.1868 45.0682 54.7876 45.1364 54.3445 45.1364Z" fill="#888C93"/>
</svg>
