<svg width="100" height="101" viewBox="0 0 100 101" fill="none" xmlns="http://www.w3.org/2000/svg">
<path d="M50 1H51.8221L52.1187 1.34092L51.8221 1.68184H50H48.178L47.8814 1.34092L48.178 1H50Z" fill="url(#paint0_linear_129_399)" stroke="black" stroke-width="0.25" stroke-linecap="round" stroke-linejoin="round"/>
<path d="M51.8221 1.68182L52.1187 2.02274L51.8221 2.36367H50.0001H48.178L47.8814 2.02274L48.178 1.68182H50.0001H51.8221Z" fill="url(#paint1_linear_129_399)" stroke="black" stroke-width="0.25" stroke-linecap="round" stroke-linejoin="round"/>
<path d="M50.0001 2.36368H51.8221L52.1187 2.7046L51.8221 3.04552H50.0001H48.178L47.8814 2.7046L48.178 2.36368H50.0001Z" fill="url(#paint2_linear_129_399)" stroke="black" stroke-width="0.25" stroke-linecap="round" stroke-linejoin="round"/>
<path d="M51.8221 3.04553L52.1187 3.43516L51.8221 3.77608H50.0001H48.178L47.8814 3.43516L48.178 3.04553H50.0001H51.8221Z" fill="url(#paint3_linear_129_399)" stroke="black" stroke-width="0.25" stroke-linecap="round" stroke-linejoin="round"/>
<path d="M50 4.45792H51.8221L52.0339 4.65273V5.28587V5.33457H50H47.9661H47.839L47.9661 5.28587V4.65273L48.178 4.45792H50Z" fill="url(#paint4_linear_129_399)" stroke="black" stroke-width="0.25" stroke-linecap="round" stroke-linejoin="round"/>
<path d="M52.1187 4.11698L51.8221 4.45791H50.0001H48.178L47.8814 4.11698L48.178 3.77606H50.0001H51.8221L52.1187 4.11698Z" fill="url(#paint5_linear_129_399)" stroke="black" stroke-width="0.25" stroke-linecap="round" stroke-linejoin="round"/>
<path d="M52.0339 5.33456H52.161V5.8703V5.919H50H47.839V5.8703V5.33456H47.9661H50H52.0339Z" fill="url(#paint6_linear_129_399)" stroke="black" stroke-width="0.25" stroke-linecap="round" stroke-linejoin="round"/>
<path d="M50 6.40604H46.7373L47.161 5.91901H47.839H50H52.161H52.839L53.2627 6.40604H50Z" fill="url(#paint7_linear_129_399)" stroke="black" stroke-width="0.25" stroke-linecap="round" stroke-linejoin="round"/>
<path d="M53.2627 6.40604V8.06194H52.6695H50H47.3305H46.7373V6.40604H50H53.2627Z" fill="url(#paint8_linear_129_399)" stroke="black" stroke-width="0.25" stroke-linecap="round" stroke-linejoin="round"/>
<path d="M50 10.2536H48.5593C48.5593 10.2536 48.8559 9.81525 50 9.81525C51.1441 9.81525 51.4407 10.2536 51.4407 10.2536H50Z" fill="url(#paint9_linear_129_399)" stroke="black" stroke-width="0.25" stroke-linecap="round" stroke-linejoin="round"/>
<path d="M51.4407 10.2536V12.8835H50H48.5593V10.2536H50H51.4407Z" fill="url(#paint10_linear_129_399)" stroke="black" stroke-width="0.25" stroke-linecap="round" stroke-linejoin="round"/>
<path d="M50 12.8835H51.4407C51.4407 12.8835 50.9746 13.2732 50 13.2732C49.0678 13.2732 48.5593 12.8835 48.5593 12.8835H50Z" fill="url(#paint11_linear_129_399)" stroke="black" stroke-width="0.25" stroke-linecap="round" stroke-linejoin="round"/>
<path d="M51.4407 12.8835V10.2536C51.4407 10.2536 51.1441 9.81526 50 9.81526C48.856 9.81526 48.5594 10.2536 48.5594 10.2536V12.8835C48.5594 12.8835 49.0255 13.2732 50 13.2732C50.9323 13.2732 51.4407 12.8835 51.4407 12.8835ZM52.6695 8.06195V15.0752H50H47.3306V8.06195H50H52.6695Z" fill="url(#paint12_linear_129_399)" stroke="black" stroke-width="0.25" stroke-linecap="round" stroke-linejoin="round"/>
<path d="M52.6695 15.1239L53.517 16.0979H50H46.4831L47.3305 15.1239H50H52.6695Z" fill="url(#paint13_linear_129_399)" stroke="black" stroke-width="0.25" stroke-linecap="round" stroke-linejoin="round"/>
<path d="M50.4661 54.2811C50.4661 54.5733 50.2542 54.8168 50.0424 54.8168C49.7881 54.8168 49.6186 54.5733 49.6186 54.2811C49.6186 53.9889 49.8305 53.7941 50.0424 53.7941C50.2542 53.7941 50.4661 54.0376 50.4661 54.2811Z" fill="url(#paint14_linear_129_399)" stroke="black" stroke-width="0.25" stroke-linecap="round" stroke-linejoin="round"/>
<path d="M50 91.7337H53.517L52.5 93H50H47.5L46.4831 91.7337H50Z" fill="url(#paint15_linear_129_399)" stroke="black" stroke-width="0.25" stroke-linecap="round" stroke-linejoin="round"/>
<path d="M47.4577 89.8343V89.0064H46.4831V78.0969H47.4577C47.5848 78.0969 47.7119 77.9508 47.7119 77.8047V77.5611C47.7119 77.415 47.5848 77.2689 47.4577 77.2689H46.4831V66.5056H48.2204C48.3899 66.5056 48.517 66.3594 48.517 66.1646V66.0185C48.517 65.8237 48.3899 65.6776 48.2204 65.6776H46.4831V43.3229V42.495V31.6829V30.8549V20.0429V19.2149V16.0979H50H53.517V19.2149V20.0429V30.8062H52.5424C52.3729 30.8062 52.2458 30.9524 52.2458 31.1472V31.342C52.2458 31.5368 52.3729 31.6829 52.5424 31.6829H53.517V42.5437H51.7797C51.6102 42.5437 51.4831 42.6898 51.4831 42.8846V43.0307C51.4831 43.2255 51.6102 43.3716 51.7797 43.3716H53.517V65.7263V66.5543V77.3176V78.1456V88.9577V89.7856V91.7337H50H46.4831V89.8343H47.4577ZM50.4661 54.2811C50.4661 53.9889 50.2543 53.7941 50.0424 53.7941C49.7882 53.7941 49.6187 54.0376 49.6187 54.2811C49.6187 54.5246 49.8305 54.8168 50.0424 54.8168C50.2543 54.8168 50.4661 54.5733 50.4661 54.2811Z" fill="url(#paint16_linear_129_399)" stroke="black" stroke-width="0.25" stroke-linecap="round" stroke-linejoin="round"/>
<path d="M60 88.909H53.5169V89.7369H60V88.909Z" fill="#4D4D4D" stroke="black" stroke-width="0.25" stroke-linecap="round" stroke-linejoin="round"/>
<path d="M47.4577 89.0064V89.8343H46.4831H40.0424V89.0064H46.4831H47.4577Z" fill="#4D4D4D" stroke="black" stroke-width="0.25" stroke-linecap="round" stroke-linejoin="round"/>
<path d="M47.4577 77.2689C47.5848 77.2689 47.7119 77.415 47.7119 77.5611V77.8047C47.7119 77.9508 47.5848 78.0969 47.4577 78.0969H46.4831H41.3983V77.2689H46.4831H47.4577Z" fill="#4D4D4D" stroke="black" stroke-width="0.25" stroke-linecap="round" stroke-linejoin="round"/>
<path d="M58.6441 77.2689H53.5169V78.0969H58.6441V77.2689Z" fill="#4D4D4D" stroke="black" stroke-width="0.25" stroke-linecap="round" stroke-linejoin="round"/>
<path d="M55.339 65.6776H53.5169V66.5056H55.339V65.6776Z" fill="#4D4D4D" stroke="black" stroke-width="0.25" stroke-linecap="round" stroke-linejoin="round"/>
<path d="M48.2204 65.6776C48.3899 65.6776 48.517 65.8237 48.517 66.0185V66.1646C48.517 66.3595 48.3899 66.5056 48.2204 66.5056H46.4831H44.7882C44.7458 66.5056 44.7034 66.4569 44.7034 66.4082V65.8237C44.7034 65.775 44.7458 65.7263 44.7882 65.7263H46.4831H48.2204V65.6776Z" fill="#4D4D4D" stroke="black" stroke-width="0.25" stroke-linecap="round" stroke-linejoin="round"/>
<path d="M53.517 42.495H55.339V43.3229H53.517H51.7797C51.6102 43.3229 51.4831 43.1768 51.4831 42.982V42.8359C51.4831 42.6411 51.6102 42.495 51.7797 42.495H53.517Z" fill="#4D4D4D" stroke="black" stroke-width="0.25" stroke-linecap="round" stroke-linejoin="round"/>
<path d="M46.4831 42.495H44.5763V43.3229H46.4831V42.495Z" fill="#4D4D4D" stroke="black" stroke-width="0.25" stroke-linecap="round" stroke-linejoin="round"/>
<path d="M46.483 30.8549H41.3559V31.6829H46.483V30.8549Z" fill="#4D4D4D" stroke="black" stroke-width="0.25" stroke-linecap="round" stroke-linejoin="round"/>
<path d="M58.7288 30.8062V31.6342H53.5169H52.5424C52.3729 31.6342 52.2457 31.4881 52.2457 31.2933V31.1472C52.2457 30.9524 52.3729 30.8062 52.5424 30.8062H53.5169H58.7288Z" fill="#4D4D4D" stroke="black" stroke-width="0.25" stroke-linecap="round" stroke-linejoin="round"/>
<path d="M60 19.2149H53.5169V20.0429H60V19.2149Z" fill="#4D4D4D" stroke="black" stroke-width="0.25" stroke-linecap="round" stroke-linejoin="round"/>
<path d="M46.4831 19.2149H40V20.0429H46.4831V19.2149Z" fill="#4D4D4D" stroke="black" stroke-width="0.25" stroke-linecap="round" stroke-linejoin="round"/>
<defs>
<linearGradient id="paint0_linear_129_399" x1="47.8877" y1="1.3531" x2="52.1081" y2="1.3531" gradientUnits="userSpaceOnUse">
<stop stop-color="#6B6B6B"/>
<stop offset="0.5" stop-color="#E0E0E0"/>
<stop offset="1" stop-color="#6B6B6B"/>
</linearGradient>
<linearGradient id="paint1_linear_129_399" x1="47.8878" y1="2.03736" x2="52.1081" y2="2.03736" gradientUnits="userSpaceOnUse">
<stop stop-color="#6B6B6B"/>
<stop offset="0.5" stop-color="#E0E0E0"/>
<stop offset="1" stop-color="#6B6B6B"/>
</linearGradient>
<linearGradient id="paint2_linear_129_399" x1="47.8878" y1="2.72408" x2="52.1081" y2="2.72408" gradientUnits="userSpaceOnUse">
<stop stop-color="#6B6B6B"/>
<stop offset="0.5" stop-color="#E0E0E0"/>
<stop offset="1" stop-color="#6B6B6B"/>
</linearGradient>
<linearGradient id="paint3_linear_129_399" x1="47.8878" y1="3.4108" x2="52.1081" y2="3.4108" gradientUnits="userSpaceOnUse">
<stop stop-color="#6B6B6B"/>
<stop offset="0.5" stop-color="#E0E0E0"/>
<stop offset="1" stop-color="#6B6B6B"/>
</linearGradient>
<linearGradient id="paint4_linear_129_399" x1="47.8369" y1="4.88894" x2="52.0488" y2="4.88894" gradientUnits="userSpaceOnUse">
<stop stop-color="#6B6B6B"/>
<stop offset="0.5" stop-color="#E0E0E0"/>
<stop offset="1" stop-color="#6B6B6B"/>
</linearGradient>
<linearGradient id="paint5_linear_129_399" x1="47.8878" y1="4.09994" x2="52.1081" y2="4.09994" gradientUnits="userSpaceOnUse">
<stop stop-color="#6B6B6B"/>
<stop offset="0.5" stop-color="#E0E0E0"/>
<stop offset="1" stop-color="#6B6B6B"/>
</linearGradient>
<linearGradient id="paint6_linear_129_399" x1="47.8369" y1="5.61704" x2="52.1632" y2="5.61704" gradientUnits="userSpaceOnUse">
<stop stop-color="#6B6B6B"/>
<stop offset="0.5" stop-color="#E0E0E0"/>
<stop offset="1" stop-color="#6B6B6B"/>
</linearGradient>
<linearGradient id="paint7_linear_129_399" x1="46.7521" y1="6.15522" x2="53.2436" y2="6.15522" gradientUnits="userSpaceOnUse">
<stop stop-color="#6B6B6B"/>
<stop offset="0.5" stop-color="#E0E0E0"/>
<stop offset="1" stop-color="#6B6B6B"/>
</linearGradient>
<linearGradient id="paint8_linear_129_399" x1="46.7521" y1="7.24616" x2="53.2436" y2="7.24616" gradientUnits="userSpaceOnUse">
<stop stop-color="#6B6B6B"/>
<stop offset="0.5" stop-color="#E0E0E0"/>
<stop offset="1" stop-color="#6B6B6B"/>
</linearGradient>
<linearGradient id="paint9_linear_129_399" x1="48.5657" y1="10.032" x2="51.4301" y2="10.032" gradientUnits="userSpaceOnUse">
<stop stop-color="#6B6B6B"/>
<stop offset="0.5" stop-color="#E0E0E0"/>
<stop offset="1" stop-color="#6B6B6B"/>
</linearGradient>
<linearGradient id="paint10_linear_129_399" x1="48.5657" y1="11.5734" x2="51.4301" y2="11.5734" gradientUnits="userSpaceOnUse">
<stop stop-color="#6B6B6B"/>
<stop offset="0.5" stop-color="#E0E0E0"/>
<stop offset="1" stop-color="#6B6B6B"/>
</linearGradient>
<linearGradient id="paint11_linear_129_399" x1="48.5657" y1="13.0857" x2="51.4301" y2="13.0857" gradientUnits="userSpaceOnUse">
<stop stop-color="#6B6B6B"/>
<stop offset="0.5" stop-color="#E0E0E0"/>
<stop offset="1" stop-color="#6B6B6B"/>
</linearGradient>
<linearGradient id="paint12_linear_129_399" x1="47.3411" y1="11.5929" x2="52.6547" y2="11.5929" gradientUnits="userSpaceOnUse">
<stop stop-color="#6B6B6B"/>
<stop offset="0.5" stop-color="#E0E0E0"/>
<stop offset="1" stop-color="#6B6B6B"/>
</linearGradient>
<linearGradient id="paint13_linear_129_399" x1="46.481" y1="15.5987" x2="53.5149" y2="15.5987" gradientUnits="userSpaceOnUse">
<stop stop-color="#6B6B6B"/>
<stop offset="0.5" stop-color="#E0E0E0"/>
<stop offset="1" stop-color="#6B6B6B"/>
</linearGradient>
<linearGradient id="paint14_linear_129_399" x1="49.5487" y1="54.303" x2="50.447" y2="54.303" gradientUnits="userSpaceOnUse">
<stop stop-color="#6B6B6B"/>
<stop offset="0.5" stop-color="#E0E0E0"/>
<stop offset="1" stop-color="#6B6B6B"/>
</linearGradient>
<linearGradient id="paint15_linear_129_399" x1="46.481" y1="92.3717" x2="53.5149" y2="92.3717" gradientUnits="userSpaceOnUse">
<stop stop-color="#6B6B6B"/>
<stop offset="0.5" stop-color="#E0E0E0"/>
<stop offset="1" stop-color="#6B6B6B"/>
</linearGradient>
<linearGradient id="paint16_linear_129_399" x1="46.481" y1="53.9085" x2="53.5149" y2="53.9085" gradientUnits="userSpaceOnUse">
<stop stop-color="#6B6B6B"/>
<stop offset="0.5" stop-color="#E0E0E0"/>
<stop offset="1" stop-color="#6B6B6B"/>
</linearGradient>
</defs>
</svg>
