<svg width="100" height="102" viewBox="0 0 100 102" fill="none" xmlns="http://www.w3.org/2000/svg">
<path d="M40.0318 89.7208L44.8669 82.4133C44.8669 82.4133 43.3428 88.6643 40.0318 93.5506V89.7208Z" fill="url(#paint0_linear_129_350)" stroke="black" stroke-width="0.25" stroke-linecap="round" stroke-linejoin="round"/>
<path d="M59.9677 92.7974V96.6272C56.6568 91.7409 55.1327 85.4899 55.1327 85.4899L59.9677 92.7974Z" fill="url(#paint1_linear_129_350)" stroke="black" stroke-width="0.25" stroke-linecap="round" stroke-linejoin="round"/>
<path d="M59.9677 74.1862V78.016C56.6568 73.1297 55.1327 66.8787 55.1327 66.8787L59.9677 74.1862Z" fill="url(#paint2_linear_129_350)" stroke="black" stroke-width="0.25" stroke-linecap="round" stroke-linejoin="round"/>
<path d="M40.0318 71.1047L44.8669 63.7972C44.8669 63.7972 43.3428 70.0482 40.0318 74.9345V71.1047Z" fill="url(#paint3_linear_129_350)" stroke="black" stroke-width="0.25" stroke-linecap="round" stroke-linejoin="round"/>
<path d="M40.0318 52.4935L44.8669 45.186C44.8669 45.186 43.3428 51.437 40.0318 56.3234V52.4935Z" fill="url(#paint4_linear_129_350)" stroke="black" stroke-width="0.25" stroke-linecap="round" stroke-linejoin="round"/>
<path d="M59.9677 55.5701V59.3999C56.6568 54.5136 55.1327 48.2626 55.1327 48.2626L59.9677 55.5701Z" fill="url(#paint5_linear_129_350)" stroke="black" stroke-width="0.25" stroke-linecap="round" stroke-linejoin="round"/>
<path d="M62 43.8948V101L59.9679 98.2756V96.6272V92.7974V78.0161V74.1862V59.4V55.5701V43.8948H60.0204H62Z" fill="url(#paint6_linear_129_350)" stroke="black" stroke-width="0.25" stroke-linecap="round" stroke-linejoin="round"/>
<path d="M40.0321 93.5507V98.2756L38 101V43.8948H39.9796H40.0321V52.4935V56.3234V71.1047V74.9346V89.7208V93.5507Z" fill="url(#paint7_linear_129_350)" stroke="black" stroke-width="0.25" stroke-linecap="round" stroke-linejoin="round"/>
<path d="M52.5577 43.9534V98.5397L50.8584 100.829H50.0934H49.9066H49.1416L47.4423 98.5397V43.9534H49.9066H50.0934H52.5577Z" fill="url(#paint8_linear_129_350)" stroke="black" stroke-width="0.25" stroke-linecap="round" stroke-linejoin="round"/>
<path d="M58.3912 37.9079L62 43.8948H60.0204L56.762 39.3753L54.5547 37.9079H58.3912Z" fill="url(#paint9_linear_129_350)" stroke="black" stroke-width="0.25" stroke-linecap="round" stroke-linejoin="round"/>
<path d="M45.4453 37.9079L43.238 39.3753L39.9796 43.8948H38L41.6088 37.9079H45.4453Z" fill="url(#paint10_linear_129_350)" stroke="black" stroke-width="0.25" stroke-linecap="round" stroke-linejoin="round"/>
<path d="M54.5548 37.9079L52.5577 39.2872V43.9535H50.0935H49.9066H47.4424V39.2872L45.4453 37.9079H54.5548Z" fill="url(#paint11_linear_129_350)" stroke="black" stroke-width="0.25" stroke-linecap="round" stroke-linejoin="round"/>
<path d="M58.3913 29.1623V37.9078H54.5548H45.4452H41.6087V29.1623H58.3913Z" fill="url(#paint12_linear_129_350)" stroke="black" stroke-width="0.25" stroke-linecap="round" stroke-linejoin="round"/>
<path d="M58.3913 29.1622H41.6087L46.1285 25.4644H53.8715L58.3913 29.1622Z" fill="url(#paint13_linear_129_350)" stroke="black" stroke-width="0.25" stroke-linecap="round" stroke-linejoin="round"/>
<path d="M54.0841 8.24683H45.9089V25.3662H54.0841V8.24683Z" fill="url(#paint14_linear_129_350)" stroke="black" stroke-width="0.25" stroke-linecap="round" stroke-linejoin="round"/>
<path d="M47.3547 7.0343H52.6453L53.8715 8.2669H46.1284L47.3547 7.0343Z" fill="url(#paint15_linear_129_350)" stroke="black" stroke-width="0.25" stroke-linecap="round" stroke-linejoin="round"/>
<path d="M52.645 5.30289H47.3545V7.03439H52.645V5.30289Z" fill="url(#paint16_linear_129_350)" stroke="black" stroke-width="0.25" stroke-linecap="round" stroke-linejoin="round"/>
<path d="M47.4979 4.80826H50.0001H52.5017H52.5046H52.6453V5.28907V5.30276H52.5536H47.4459H47.3548V5.28907V4.80826H47.4949H47.4979Z" fill="url(#paint17_linear_129_350)" stroke="black" stroke-width="0.25" stroke-linecap="round" stroke-linejoin="round"/>
<path d="M50 4.80823H47.4978V4.21834L47.7652 4.02954H50H52.2341L52.5016 4.21834V4.80823H50Z" fill="url(#paint18_linear_129_350)" stroke="black" stroke-width="0.25" stroke-linecap="round" stroke-linejoin="round"/>
<path d="M52.2406 3.42068L52.5799 3.72639L52.2406 4.02964H52.2342H50H47.7653H47.7588L47.4231 3.72639L47.7588 3.42068H50H52.2406Z" fill="url(#paint19_linear_129_350)" stroke="black" stroke-width="0.25" stroke-linecap="round" stroke-linejoin="round"/>
<path d="M52.2405 2.81653L52.5798 3.11734L52.2405 3.4206H49.9999H47.7588L47.4195 3.11734L47.7588 2.81653H49.9999H52.2405Z" fill="url(#paint20_linear_129_350)" stroke="black" stroke-width="0.25" stroke-linecap="round" stroke-linejoin="round"/>
<path d="M52.5798 2.51334L52.2405 2.8166H49.9999H47.7588L47.4195 2.51334L47.7588 2.20764H49.9999H52.2405L52.5798 2.51334Z" fill="url(#paint21_linear_129_350)" stroke="black" stroke-width="0.25" stroke-linecap="round" stroke-linejoin="round"/>
<path d="M52.2405 1.60114L52.5798 1.90684L52.2405 2.20765H49.9999H47.7588L47.4195 1.90684L47.7588 1.60114H49.9999H52.2405Z" fill="url(#paint22_linear_129_350)" stroke="black" stroke-width="0.25" stroke-linecap="round" stroke-linejoin="round"/>
<path d="M52.2405 1L52.5798 1.30032L52.2405 1.60113H49.9999H47.7588L47.4195 1.30032L47.7588 1H49.9999H52.2405Z" fill="url(#paint23_linear_129_350)" stroke="black" stroke-width="0.25" stroke-linecap="round" stroke-linejoin="round"/>
<path d="M54.668 6.77945H45.325V8.73595H54.668V6.77945Z" fill="url(#paint24_linear_129_350)" stroke="black" stroke-width="0.25" stroke-linecap="round" stroke-linejoin="round"/>
<defs>
<linearGradient id="paint0_linear_129_350" x1="40.0393" y1="88.0358" x2="44.8684" y2="88.0358" gradientUnits="userSpaceOnUse">
<stop stop-color="#6B6B6B"/>
<stop offset="0.5" stop-color="#E0E0E0"/>
<stop offset="1" stop-color="#6B6B6B"/>
</linearGradient>
<linearGradient id="paint1_linear_129_350" x1="55.1401" y1="91.1124" x2="59.9692" y2="91.1124" gradientUnits="userSpaceOnUse">
<stop stop-color="#6B6B6B"/>
<stop offset="0.5" stop-color="#E0E0E0"/>
<stop offset="1" stop-color="#6B6B6B"/>
</linearGradient>
<linearGradient id="paint2_linear_129_350" x1="55.1401" y1="72.5012" x2="59.9692" y2="72.5012" gradientUnits="userSpaceOnUse">
<stop stop-color="#6B6B6B"/>
<stop offset="0.5" stop-color="#E0E0E0"/>
<stop offset="1" stop-color="#6B6B6B"/>
</linearGradient>
<linearGradient id="paint3_linear_129_350" x1="40.0393" y1="69.4192" x2="44.8684" y2="69.4192" gradientUnits="userSpaceOnUse">
<stop stop-color="#6B6B6B"/>
<stop offset="0.5" stop-color="#E0E0E0"/>
<stop offset="1" stop-color="#6B6B6B"/>
</linearGradient>
<linearGradient id="paint4_linear_129_350" x1="40.0393" y1="50.808" x2="44.8684" y2="50.808" gradientUnits="userSpaceOnUse">
<stop stop-color="#6B6B6B"/>
<stop offset="0.5" stop-color="#E0E0E0"/>
<stop offset="1" stop-color="#6B6B6B"/>
</linearGradient>
<linearGradient id="paint5_linear_129_350" x1="55.1401" y1="53.8846" x2="59.9692" y2="53.8846" gradientUnits="userSpaceOnUse">
<stop stop-color="#6B6B6B"/>
<stop offset="0.5" stop-color="#E0E0E0"/>
<stop offset="1" stop-color="#6B6B6B"/>
</linearGradient>
<linearGradient id="paint6_linear_129_350" x1="59.971" y1="72.7213" x2="62.0006" y2="72.7213" gradientUnits="userSpaceOnUse">
<stop stop-color="#6B6B6B"/>
<stop offset="0.5" stop-color="#E0E0E0"/>
<stop offset="1" stop-color="#6B6B6B"/>
</linearGradient>
<linearGradient id="paint7_linear_129_350" x1="38.0032" y1="72.7213" x2="40.0328" y2="72.7213" gradientUnits="userSpaceOnUse">
<stop stop-color="#6B6B6B"/>
<stop offset="0.5" stop-color="#E0E0E0"/>
<stop offset="1" stop-color="#6B6B6B"/>
</linearGradient>
<linearGradient id="paint8_linear_129_350" x1="47.4503" y1="72.6635" x2="52.5592" y2="72.6635" gradientUnits="userSpaceOnUse">
<stop stop-color="#6B6B6B"/>
<stop offset="0.5" stop-color="#E0E0E0"/>
<stop offset="1" stop-color="#6B6B6B"/>
</linearGradient>
<linearGradient id="paint9_linear_129_350" x1="54.5663" y1="40.9301" x2="62.0023" y2="40.9301" gradientUnits="userSpaceOnUse">
<stop stop-color="#6B6B6B"/>
<stop offset="0.5" stop-color="#E0E0E0"/>
<stop offset="1" stop-color="#6B6B6B"/>
</linearGradient>
<linearGradient id="paint10_linear_129_350" x1="38.0116" y1="40.9301" x2="45.4476" y2="40.9301" gradientUnits="userSpaceOnUse">
<stop stop-color="#6B6B6B"/>
<stop offset="0.5" stop-color="#E0E0E0"/>
<stop offset="1" stop-color="#6B6B6B"/>
</linearGradient>
<linearGradient id="paint11_linear_129_350" x1="45.4594" y1="40.9597" x2="54.5576" y2="40.9597" gradientUnits="userSpaceOnUse">
<stop stop-color="#6B6B6B"/>
<stop offset="0.5" stop-color="#E0E0E0"/>
<stop offset="1" stop-color="#6B6B6B"/>
</linearGradient>
<linearGradient id="paint12_linear_129_350" x1="41.6348" y1="33.577" x2="58.3965" y2="33.577" gradientUnits="userSpaceOnUse">
<stop stop-color="#6B6B6B"/>
<stop offset="0.5" stop-color="#E0E0E0"/>
<stop offset="1" stop-color="#6B6B6B"/>
</linearGradient>
<linearGradient id="paint13_linear_129_350" x1="41.6348" y1="27.3311" x2="58.3965" y2="27.3311" gradientUnits="userSpaceOnUse">
<stop stop-color="#6B6B6B"/>
<stop offset="0.5" stop-color="#E0E0E0"/>
<stop offset="1" stop-color="#6B6B6B"/>
</linearGradient>
<linearGradient id="paint14_linear_129_350" x1="45.9216" y1="16.8886" x2="54.0866" y2="16.8886" gradientUnits="userSpaceOnUse">
<stop stop-color="#6B6B6B"/>
<stop offset="0.5" stop-color="#E0E0E0"/>
<stop offset="1" stop-color="#6B6B6B"/>
</linearGradient>
<linearGradient id="paint15_linear_129_350" x1="46.1405" y1="7.65652" x2="53.8739" y2="7.65652" gradientUnits="userSpaceOnUse">
<stop stop-color="#6B6B6B"/>
<stop offset="0.5" stop-color="#E0E0E0"/>
<stop offset="1" stop-color="#6B6B6B"/>
</linearGradient>
<linearGradient id="paint16_linear_129_350" x1="47.3627" y1="6.17695" x2="52.6467" y2="6.17695" gradientUnits="userSpaceOnUse">
<stop stop-color="#6B6B6B"/>
<stop offset="0.5" stop-color="#E0E0E0"/>
<stop offset="1" stop-color="#6B6B6B"/>
</linearGradient>
<linearGradient id="paint17_linear_129_350" x1="47.363" y1="5.05786" x2="52.647" y2="5.05786" gradientUnits="userSpaceOnUse">
<stop stop-color="#6B6B6B"/>
<stop offset="0.5" stop-color="#E0E0E0"/>
<stop offset="1" stop-color="#6B6B6B"/>
</linearGradient>
<linearGradient id="paint18_linear_129_350" x1="47.5055" y1="4.42265" x2="52.5032" y2="4.42265" gradientUnits="userSpaceOnUse">
<stop stop-color="#6B6B6B"/>
<stop offset="0.5" stop-color="#E0E0E0"/>
<stop offset="1" stop-color="#6B6B6B"/>
</linearGradient>
<linearGradient id="paint19_linear_129_350" x1="47.4311" y1="3.72805" x2="52.5814" y2="3.72805" gradientUnits="userSpaceOnUse">
<stop stop-color="#6B6B6B"/>
<stop offset="0.5" stop-color="#E0E0E0"/>
<stop offset="1" stop-color="#6B6B6B"/>
</linearGradient>
<linearGradient id="paint20_linear_129_350" x1="47.4275" y1="3.1215" x2="52.5814" y2="3.1215" gradientUnits="userSpaceOnUse">
<stop stop-color="#6B6B6B"/>
<stop offset="0.5" stop-color="#E0E0E0"/>
<stop offset="1" stop-color="#6B6B6B"/>
</linearGradient>
<linearGradient id="paint21_linear_129_350" x1="47.4275" y1="2.51501" x2="52.5814" y2="2.51501" gradientUnits="userSpaceOnUse">
<stop stop-color="#6B6B6B"/>
<stop offset="0.5" stop-color="#E0E0E0"/>
<stop offset="1" stop-color="#6B6B6B"/>
</linearGradient>
<linearGradient id="paint22_linear_129_350" x1="47.4275" y1="1.90728" x2="52.5814" y2="1.90728" gradientUnits="userSpaceOnUse">
<stop stop-color="#6B6B6B"/>
<stop offset="0.5" stop-color="#E0E0E0"/>
<stop offset="1" stop-color="#6B6B6B"/>
</linearGradient>
<linearGradient id="paint23_linear_129_350" x1="47.4275" y1="1.30345" x2="52.5814" y2="1.30345" gradientUnits="userSpaceOnUse">
<stop stop-color="#6B6B6B"/>
<stop offset="0.5" stop-color="#E0E0E0"/>
<stop offset="1" stop-color="#6B6B6B"/>
</linearGradient>
<linearGradient id="paint24_linear_129_350" x1="45.3395" y1="7.76708" x2="54.6709" y2="7.76708" gradientUnits="userSpaceOnUse">
<stop stop-color="#6B6B6B"/>
<stop offset="0.5" stop-color="#E0E0E0"/>
<stop offset="1" stop-color="#6B6B6B"/>
</linearGradient>
</defs>
</svg>
