<?xml version="1.0" encoding="UTF-8" standalone="no"?>
<!DOCTYPE svg PUBLIC "-//W3C//DTD SVG 1.1//EN" "http://www.w3.org/Graphics/SVG/1.1/DTD/svg11.dtd">
<svg width="100%" height="100%" viewBox="0 0 13 126" version="1.1" xmlns="http://www.w3.org/2000/svg" xmlns:xlink="http://www.w3.org/1999/xlink" xml:space="preserve" xmlns:serif="http://www.serif.com/" style="fill-rule:evenodd;clip-rule:evenodd;stroke-linecap:round;stroke-linejoin:round;stroke-miterlimit:10;">
    <g transform="matrix(1,0,0,1,-1133.11,-191.227)">
        <g transform="matrix(1,0,0,1,1101.81,172.671)">
            <g transform="matrix(12.65,0,0,-12.65,31.422,89.8034)">
                <path d="M1,4.201L0,4.201L0,-4.201L1,-4.201L1,4.201Z" style="fill:url(#_Linear1);fill-rule:nonzero;"/>
            </g>
        </g>
        <g transform="matrix(1,0,0,1,1101.81,172.671)">
            <g transform="matrix(11.63,0,0,-11.63,31.932,20.8044)">
                <path d="M0,0.139L0,-0.139L1,-0.139L1,0.139L0,0.139Z" style="fill:url(#_Linear2);fill-rule:nonzero;"/>
            </g>
        </g>
        <g transform="matrix(1,0,0,1,1101.81,172.671)">
            <g transform="matrix(9.10362,8.78331,8.78331,-9.10362,33.1952,138.813)">
                <path d="M0.126,-0.332L0.185,-0.332L0.843,0.303L0.846,0.362L0.126,-0.332Z" style="fill:url(#_Linear3);fill-rule:nonzero;"/>
            </g>
        </g>
        <g transform="matrix(1,0,0,1,1101.81,172.671)">
            <g transform="matrix(4.76,0,0,-4.76,35.372,28.8754)">
                <path d="M1,0.897L0,0.897L0,-0.897L1,-0.897L1,0.897Z" style="fill:url(#_Linear4);fill-rule:nonzero;"/>
            </g>
        </g>
        <g transform="matrix(1,0,0,1,1101.81,172.671)">
            <g transform="matrix(4.75,0,0,-4.75,35.372,24.2755)">
                <path d="M0,-0.069L1,-0.069C0.977,-0.053 0.781,0.07 0.501,0.07C0.2,0.07 0,-0.069 0,-0.069Z" style="fill:url(#_Linear5);fill-rule:nonzero;"/>
            </g>
        </g>
        <g transform="matrix(1,0,0,1,1101.81,172.671)">
            <g transform="matrix(4.76,0,0,-4.76,35.372,33.4744)">
                <path d="M0,0.069C0,0.069 0.2,-0.069 0.5,-0.069C0.799,-0.069 1,0.069 1,0.069L0,0.069Z" style="fill:url(#_Linear6);fill-rule:nonzero;"/>
            </g>
        </g>
        <g transform="matrix(1,0,0,1,1101.81,172.671)">
            <g transform="matrix(9.97,0,0,-9.97,32.762,28.8744)">
                <path d="M0,0.647L0,-0.647L1,-0.647L1,0.647L0,0.647ZM0.262,-0.428L0.262,0.428C0.262,0.428 0.357,0.494 0.501,0.494C0.634,0.494 0.727,0.436 0.738,0.428L0.739,0.428L0.739,-0.428C0.739,-0.428 0.643,-0.494 0.501,-0.494C0.357,-0.494 0.262,-0.428 0.262,-0.428Z" style="fill:url(#_Linear7);fill-rule:nonzero;"/>
            </g>
        </g>
        <g transform="matrix(1,0,0,1,1101.81,172.671)">
            <g transform="matrix(11.63,0,0,-11.63,31.932,18.9244)">
                <path d="M0.954,0.022L0.047,0.022L0,-0.022L1,-0.022L0.954,0.022Z" style="fill:url(#_Linear8);fill-rule:nonzero;"/>
            </g>
        </g>
        <g transform="matrix(1,0,0,1,1101.81,172.671)">
            <g transform="matrix(12.65,0,0,-12.65,31.422,35.9935)">
                <path d="M0.894,0.053L0.106,0.053L0,-0.053L1,-0.053L0.894,0.053Z" style="fill:url(#_Linear9);fill-rule:nonzero;"/>
            </g>
        </g>
        <g transform="matrix(1,0,0,1,1101.81,172.671)">
            <g transform="matrix(0.707107,-0.707107,-0.707107,-0.707107,32.0921,36.9421)">
                <path d="M-0.278,0.67L1.618,0.67" style="fill:none;fill-rule:nonzero;stroke:rgb(32,27,24);stroke-width:0.24px;"/>
            </g>
        </g>
        <g transform="matrix(1,0,0,1,1101.81,172.671)">
            <g transform="matrix(1,0,0,1,31.4221,36.6648)">
                <path d="M0,106.28L0,0L6.33,0" style="fill:none;fill-rule:nonzero;stroke:rgb(32,27,24);stroke-width:0.24px;"/>
            </g>
        </g>
        <g transform="matrix(1,0,0,1,1101.81,172.671)">
            <g transform="matrix(0,1,1,0,97.212,89.8046)">
                <path d="M-53.14,-53.14L53.14,-53.14" style="fill:none;fill-rule:nonzero;stroke:rgb(32,27,24);stroke-width:0.24px;"/>
            </g>
        </g>
        <g transform="matrix(1,0,0,1,1101.81,172.671)">
            <g transform="matrix(-0.72032,0.693642,0.693642,0.72032,33.3713,147.779)">
                <path d="M-11.061,3.94L-10.312,3.94L-1.978,-4.085L-1.949,-4.835L-11.061,3.94Z" style="fill:none;fill-rule:nonzero;stroke:rgb(32,27,24);stroke-width:0.24px;"/>
            </g>
        </g>
        <g transform="matrix(1,0,0,1,1101.81,172.671)">
            <g transform="matrix(1,0,0,1,41.7121,19.1743)">
                <path d="M-9.23,-0.5L1.31,-0.5L1.85,0L-9.78,0L-9.23,-0.5Z" style="fill:none;fill-rule:nonzero;stroke:rgb(32,27,24);stroke-width:0.24px;"/>
            </g>
        </g>
        <g transform="matrix(1,0,0,1,1101.81,172.671)">
            <g transform="matrix(1,0,0,1,32.7619,19.1843)">
                <path d="M0,3.24L-0.83,3.24L-0.83,0L10.8,0L10.8,3.24L9.97,3.24" style="fill:none;fill-rule:nonzero;stroke:rgb(32,27,24);stroke-width:0.24px;"/>
            </g>
        </g>
        <g transform="matrix(1,0,0,1,1101.81,172.671)">
            <g transform="matrix(0,-1,-1,0,44.1971,23.8897)">
                <path d="M-11.435,1.465L1.465,1.465L1.465,11.435L-11.435,11.435L-11.435,6.445" style="fill:none;fill-rule:nonzero;stroke:rgb(32,27,24);stroke-width:0.24px;"/>
            </g>
        </g>
        <g transform="matrix(1,0,0,1,1101.81,172.671)">
            <g transform="matrix(1,0,0,1,40.132,33.804)">
                <path d="M0,-0.659C0,-0.659 -0.96,0 -2.38,0C-3.81,0 -4.76,-0.659 -4.76,-0.659" style="fill:none;fill-rule:nonzero;stroke:rgb(32,27,24);stroke-width:0.24px;"/>
            </g>
        </g>
        <g transform="matrix(1,0,0,1,1101.81,172.671)">
            <g transform="matrix(1,0,0,1,35.3718,23.945)">
                <path d="M0,0.66C0,0.66 0.95,0 2.38,0C3.71,0 4.64,0.58 4.75,0.66" style="fill:none;fill-rule:nonzero;stroke:rgb(32,27,24);stroke-width:0.24px;"/>
            </g>
        </g>
        <g transform="matrix(1,0,0,1,1101.81,172.671)">
            <g transform="matrix(1,0,0,1,37.7522,36.6647)">
                <path d="M0,-1.34L4.98,-1.34L6.32,0L0,0" style="fill:none;fill-rule:nonzero;stroke:rgb(32,27,24);stroke-width:0.24px;"/>
            </g>
        </g>
        <g transform="matrix(1,0,0,1,1101.81,172.671)">
            <g transform="matrix(1,0,0,1,40.1218,33.145)">
                <path d="M-4.75,-8.54L0.01,-8.54L0.01,0L-4.75,0L-4.75,-8.54Z" style="fill:none;fill-rule:nonzero;stroke:rgb(32,27,24);stroke-width:0.24px;"/>
            </g>
        </g>
    </g>
    <defs>
        <linearGradient id="_Linear1" x1="0" y1="0" x2="1" y2="0" gradientUnits="userSpaceOnUse" gradientTransform="matrix(1,0,0,-1,0,-8.75573e-05)"><stop offset="0" style="stop-color:rgb(140,140,139);stop-opacity:1"/><stop offset="0.5" style="stop-color:rgb(233,233,233);stop-opacity:1"/><stop offset="1" style="stop-color:rgb(140,140,139);stop-opacity:1"/></linearGradient>
        <linearGradient id="_Linear2" x1="0" y1="0" x2="1" y2="0" gradientUnits="userSpaceOnUse" gradientTransform="matrix(1,0,0,-1,0,-1.05589e-05)"><stop offset="0" style="stop-color:rgb(140,140,139);stop-opacity:1"/><stop offset="0.5" style="stop-color:rgb(233,233,233);stop-opacity:1"/><stop offset="1" style="stop-color:rgb(140,140,139);stop-opacity:1"/></linearGradient>
        <linearGradient id="_Linear3" x1="0" y1="0" x2="1" y2="0" gradientUnits="userSpaceOnUse" gradientTransform="matrix(0.719654,0.694333,0.694333,-0.719654,0.140176,-0.347174)"><stop offset="0" style="stop-color:rgb(140,140,139);stop-opacity:1"/><stop offset="0.5" style="stop-color:rgb(233,233,233);stop-opacity:1"/><stop offset="1" style="stop-color:rgb(140,140,139);stop-opacity:1"/></linearGradient>
        <linearGradient id="_Linear4" x1="0" y1="0" x2="1" y2="0" gradientUnits="userSpaceOnUse" gradientTransform="matrix(1,0,0,-1,0,0.000187605)"><stop offset="0" style="stop-color:rgb(140,140,139);stop-opacity:1"/><stop offset="0.5" style="stop-color:rgb(233,233,233);stop-opacity:1"/><stop offset="1" style="stop-color:rgb(140,140,139);stop-opacity:1"/></linearGradient>
        <linearGradient id="_Linear5" x1="0" y1="0" x2="1" y2="0" gradientUnits="userSpaceOnUse" gradientTransform="matrix(1,0,0,-1,0,0.000190568)"><stop offset="0" style="stop-color:rgb(140,140,139);stop-opacity:1"/><stop offset="0.5" style="stop-color:rgb(233,233,233);stop-opacity:1"/><stop offset="1" style="stop-color:rgb(140,140,139);stop-opacity:1"/></linearGradient>
        <linearGradient id="_Linear6" x1="0" y1="0" x2="1" y2="0" gradientUnits="userSpaceOnUse" gradientTransform="matrix(1,0,0,-1,0,-2.5042e-05)"><stop offset="0" style="stop-color:rgb(140,140,139);stop-opacity:1"/><stop offset="0.5" style="stop-color:rgb(233,233,233);stop-opacity:1"/><stop offset="1" style="stop-color:rgb(140,140,139);stop-opacity:1"/></linearGradient>
        <linearGradient id="_Linear7" x1="0" y1="0" x2="1" y2="0" gradientUnits="userSpaceOnUse" gradientTransform="matrix(1,0,0,-1,0,-1.07322e-05)"><stop offset="0" style="stop-color:rgb(140,140,139);stop-opacity:1"/><stop offset="0.5" style="stop-color:rgb(233,233,233);stop-opacity:1"/><stop offset="1" style="stop-color:rgb(140,140,139);stop-opacity:1"/></linearGradient>
        <linearGradient id="_Linear8" x1="0" y1="0" x2="1" y2="0" gradientUnits="userSpaceOnUse" gradientTransform="matrix(1,0,0,-1,0,-9.71625e-06)"><stop offset="0" style="stop-color:rgb(140,140,139);stop-opacity:1"/><stop offset="0.5" style="stop-color:rgb(233,233,233);stop-opacity:1"/><stop offset="1" style="stop-color:rgb(140,140,139);stop-opacity:1"/></linearGradient>
        <linearGradient id="_Linear9" x1="0" y1="0" x2="1" y2="0" gradientUnits="userSpaceOnUse" gradientTransform="matrix(1,0,0,-1,0,-8.67352e-05)"><stop offset="0" style="stop-color:rgb(140,140,139);stop-opacity:1"/><stop offset="0.5" style="stop-color:rgb(233,233,233);stop-opacity:1"/><stop offset="1" style="stop-color:rgb(140,140,139);stop-opacity:1"/></linearGradient>
    </defs>
</svg>
